<svg id="Component_1_1" data-name="Component 1 – 1" xmlns="http://www.w3.org/2000/svg" width="523.805" height="1031.455" viewBox="0 0 523.805 1031.455">
  <path id="Rectangle_5" data-name="Rectangle 5" d="M200,0H509a0,0,0,0,1,0,0V315A200,200,0,0,1,309,515H0a0,0,0,0,1,0,0V200A200,200,0,0,1,200,0Z" transform="translate(7.403)" fill="#63f5ff"/>
  <path id="Rectangle_6" data-name="Rectangle 6" d="M200,0H509a0,0,0,0,1,0,0V315A200,200,0,0,1,309,515H0a0,0,0,0,1,0,0V200A200,200,0,0,1,200,0Z" transform="matrix(-0.017, 1, -1, -0.017, 523.805, 522.533)" fill="#63f5ff"/>
</svg>
